<?xml version="1.0" encoding="iso-8859-1"?>
<!-- Generator: Adobe Illustrator 19.0.0, SVG Export Plug-In . SVG Version: 6.00 Build 0)  -->
<svg version="1.1" id="Capa_1" xmlns="http://www.w3.org/2000/svg" xmlns:xlink="http://www.w3.org/1999/xlink" x="0px" y="0px"
	 viewBox="0 0 428.952 428.952" style="enable-background:new 0 0 428.952 428.952;" xml:space="preserve">
<g>
	<g>
		<path style="fill:#00EFD1;" d="M409.685,182.356v53.812l-17.241,3.135l0,0c-20.618-24.167-50.779-38.103-82.547-38.139
			l-13.061,1.045l0,0c-3.961-48.023-46.102-83.743-94.125-79.782s-83.743,46.102-79.782,94.125
			c3.477,42.162,36.701,75.755,78.822,79.698h0.522c-0.607,4.504-0.956,9.04-1.045,13.584c0.034,32.555,14.593,63.397,39.706,84.114
			l-1.567,2.09l-2.09,13.584h-54.857l-6.792-39.706c-19.421-4.608-37.953-12.374-54.857-22.988l-32.914,23.51l-38.661-38.139
			l23.51-33.437c-10.491-16.907-18.084-35.448-22.465-54.857l-40.229-6.792v-54.857l40.229-6.269
			c4.003-19.526,11.623-38.132,22.465-54.857l-23.51-33.437l38.661-38.661l32.914,23.51c16.907-10.491,35.448-18.084,54.857-22.465
			l6.792-40.229h54.857l6.269,40.229c19.526,4.003,38.132,11.623,54.857,22.465l33.959-24.555l38.139,39.184l-23.51,33.437
			c10.7,16.859,18.472,35.406,22.988,54.857L409.685,182.356z"/>
		<path style="fill:#00ACEA;" d="M392.444,239.303c17.031,19.53,26.324,44.619,26.122,70.531
			c0.001,60.102-48.569,108.904-108.669,109.192c-25.216-0.022-49.623-8.898-68.963-25.078
			c-25.113-20.717-39.672-51.559-39.706-84.114c0.089-4.544,0.438-9.079,1.045-13.584c6.319-49.278,45.251-87.995,94.563-94.041
			l13.061-1.045C341.665,201.2,371.826,215.135,392.444,239.303z"/>
	</g>
	<g>
		<path style="fill:#083863;" d="M410.73,246.617L410.73,246.617c4.788-1.045,7.972-5.592,7.314-10.449v-53.812
			c0.657-4.857-2.526-9.404-7.314-10.449l-32.914-5.747c-4.087-15.883-10.235-31.164-18.286-45.453l19.853-27.69
			c2.5-4.307,2.085-9.71-1.045-13.584l-38.661-38.661c-3.737-3.458-9.362-3.891-13.584-1.045l-27.69,19.853
			c-14.352-7.92-29.615-14.06-45.453-18.286L247.203,8.38c-0.548-4.989-4.917-8.668-9.927-8.359h-54.335
			c-5.12-0.333-9.65,3.291-10.449,8.359l-5.747,32.914c-15.901,4.275-31.18,10.597-45.453,18.808L93.603,40.25
			c-4.307-2.5-9.71-2.085-13.584,1.045L41.358,79.956c-3.458,3.737-3.891,9.362-1.045,13.584l19.853,27.69
			c-8.3,14.229-14.627,29.52-18.808,45.453l-32.914,5.747c-5.068,0.799-8.692,5.329-8.359,10.449v54.335
			c-0.309,5.009,3.37,9.378,8.359,9.927l32.914,5.747c4.275,15.901,10.597,31.18,18.808,45.453l-19.853,27.69
			c-2.5,4.307-2.085,9.71,1.045,13.584l38.661,38.661c3.737,3.458,9.362,3.891,13.584,1.045l27.69-19.853
			c14.229,8.299,29.52,14.627,45.453,18.808l5.747,32.392c1.045,4.788,5.592,7.972,10.449,7.314h54.335
			c4.669,0.374,8.901-2.745,9.927-7.314l0,0c18.842,11.692,40.52,18.015,62.694,18.286c65.787-0.07,119.061-53.458,118.991-119.245
			C428.864,287.391,422.572,265.531,410.73,246.617z M191.301,397.082l-5.224-30.302c-0.462-4.122-3.715-7.375-7.837-7.837
			c-18.298-3.991-35.787-11.058-51.722-20.898c-3.591-2.141-8.112-1.935-11.494,0.522l-26.122,18.286l-26.122-26.122l18.286-26.122
			c2.296-3.487,2.296-8.007,0-11.494c-9.796-15.958-16.859-33.439-20.898-51.722c-0.632-4.038-3.799-7.205-7.837-7.837
			l-31.347-5.224v-37.094l31.347-5.224c4.122-0.462,7.375-3.715,7.837-7.837c4.223-18.226,11.275-35.678,20.898-51.722
			c2.614-3.386,2.614-8.108,0-11.494L62.779,88.837l26.122-26.122l26.122,18.286c3.487,2.296,8.007,2.296,11.494,0
			c15.958-9.796,33.439-16.859,51.722-20.898c4.038-0.632,7.205-3.799,7.837-7.837l5.224-31.347h37.094l5.224,31.347
			c0.462,4.122,3.715,7.375,7.837,7.837c18.226,4.223,35.678,11.275,51.722,20.898c3.385,2.614,8.108,2.614,11.494,0l26.122-18.808
			l26.122,26.122l-18.286,26.122c-2.296,3.487-2.296,8.007,0,11.494c9.796,15.958,16.859,33.439,20.898,51.722
			c1.045,4.18,3.135,7.314,7.314,7.837l30.302,5.224v37.094h-2.09c-21.972-24.069-53.092-37.732-85.682-37.616h-3.657
			c-9.38-45.706-49.473-78.608-96.131-78.89c-53.957,0-97.698,43.741-97.698,97.698c-0.501,47.117,33.048,87.728,79.412,96.131
			c0,1.567-0.522,3.135-0.522,4.702c-0.115,32.589,13.547,63.71,37.616,85.682v1.567H191.301z M193.913,284.233
			c-41.465-8.93-67.839-49.783-58.91-91.248s49.783-67.84,91.248-58.91c29.819,6.422,53.012,29.882,59.09,59.774
			C239.631,203.167,203.755,238.633,193.913,284.233z M309.897,408.054c-22.618-0.017-44.553-7.759-62.171-21.943
			c-22.941-18.66-36.196-46.706-36.049-76.278c0.111-4.023,0.46-8.035,1.045-12.016c5.485-44.758,40.891-79.948,85.682-85.159
			l11.494-1.045c28.75,0.006,56.053,12.608,74.71,34.482l0,0c35.202,41.272,30.281,103.267-10.992,138.469
			C355.845,399.721,333.254,408.049,309.897,408.054L309.897,408.054z"/>
		<path style="fill:#083863;" d="M287.432,355.286c-3.547-0.04-6.855-1.791-8.882-4.702l-31.347-47.02
			c-3.174-4.905-1.77-11.455,3.135-14.629c4.905-3.174,11.455-1.77,14.629,3.135l25.6,38.139l69.486-46.498
			c4.905-3.174,11.455-1.77,14.629,3.135c3.174,4.905,1.77,11.455-3.135,14.629l-78.367,52.245
			C291.456,354.788,289.459,355.333,287.432,355.286z"/>
	</g>
</g>
<g>
</g>
<g>
</g>
<g>
</g>
<g>
</g>
<g>
</g>
<g>
</g>
<g>
</g>
<g>
</g>
<g>
</g>
<g>
</g>
<g>
</g>
<g>
</g>
<g>
</g>
<g>
</g>
<g>
</g>
</svg>
