<?xml version="1.0" encoding="iso-8859-1"?>
<!-- Generator: Adobe Illustrator 19.0.0, SVG Export Plug-In . SVG Version: 6.00 Build 0)  -->
<svg version="1.1" id="Capa_1" xmlns="http://www.w3.org/2000/svg" xmlns:xlink="http://www.w3.org/1999/xlink" x="0px" y="0px"
	 viewBox="0 0 496 496" style="enable-background:new 0 0 496 496;" xml:space="preserve">
<linearGradient id="SVGID_1_" gradientUnits="userSpaceOnUse" x1="-44.6776" y1="549.9056" x2="17.8344" y2="612.4226" gradientTransform="matrix(8 0 0 -8 398.9998 4905)">
	<stop  offset="0" style="stop-color:#003F8A"/>
	<stop  offset="0.518" style="stop-color:#00D7DF"/>
	<stop  offset="1" style="stop-color:#006DF0"/>
</linearGradient>
<path style="fill:url(#SVGID_1_);" d="M472,164h-88v-63.6c-0.018-0.215-0.047-0.428-0.088-0.64
	c-0.027-2.028-0.835-3.968-2.256-5.416l-79.904-80c-0.219-0.161-0.446-0.311-0.68-0.448c-0.506-0.436-1.065-0.807-1.664-1.104
	c-0.282-0.118-0.57-0.219-0.864-0.304c-0.661-0.228-1.35-0.365-2.048-0.408C296.328,12.088,296.168,12,296,12H120
	c-4.418,0-8,3.582-8,8l0,0v96H24c-13.255,0-24,10.745-24,24v320c0,13.255,10.745,24,24,24h448c13.255,0,24-10.745,24-24V188
	C496,174.745,485.255,164,472,164L472,164z M304,39.32L356.376,92H304V39.32z M128,28h160v72c0,4.418,3.582,8,8,8h72v56H259.312
	l-45.656-45.656c-1.5-1.5-3.534-2.344-5.656-2.344h-80V28z M480,460c0,4.418-3.582,8-8,8H24c-4.418,0-8-3.582-8-8V140
	c0-4.418,3.582-8,8-8h180.688l45.656,45.656c1.5,1.5,3.534,2.344,5.656,2.344h216c4.418,0,8,3.582,8,8V460z"/>
<linearGradient id="SVGID_2_" gradientUnits="userSpaceOnUse" x1="-48.633" y1="553.867" x2="13.879" y2="616.379" gradientTransform="matrix(8 0 0 -8 398.9998 4905)">
	<stop  offset="0" style="stop-color:#003F8A"/>
	<stop  offset="0.518" style="stop-color:#00D7DF"/>
	<stop  offset="1" style="stop-color:#006DF0"/>
</linearGradient>
<path style="fill:url(#SVGID_2_);" d="M72,436h-8l-16-16v-8c0-4.418-3.582-8-8-8s-8,3.582-8,8v32c0,4.418,3.582,8,8,8h32
	c4.418,0,8-3.582,8-8S76.418,436,72,436z"/>
<g>
</g>
<g>
</g>
<g>
</g>
<g>
</g>
<g>
</g>
<g>
</g>
<g>
</g>
<g>
</g>
<g>
</g>
<g>
</g>
<g>
</g>
<g>
</g>
<g>
</g>
<g>
</g>
<g>
</g>
</svg>
