<svg height="512pt" viewBox="0 0 512 512" width="512pt" xmlns="http://www.w3.org/2000/svg" xmlns:xlink="http://www.w3.org/1999/xlink"><linearGradient id="a" gradientTransform="matrix(1 0 0 -1 0 -13022)" gradientUnits="userSpaceOnUse" x1="0" x2="512" y1="-13278" y2="-13278"><stop offset="0" stop-color="#00f38d"/><stop offset="1" stop-color="#009eff"/></linearGradient><path d="m512 256c0 141.386719-114.613281 256-256 256s-256-114.613281-256-256 114.613281-256 256-256 256 114.613281 256 256zm0 0" fill="url(#a)"/><g fill="#fff"><path d="m256 55.109375c-110.28125 0-200 89.71875-200 200v.78125c0 110.28125 89.71875 200 200 200s200-89.71875 200-200v-.78125c0-110.28125-89.71875-200-200-200zm170 200.78125c0 93.738281-76.261719 170-170 170s-170-76.261719-170-170v-.78125c0-93.738281 76.261719-170 170-170s170 76.261719 170 170zm0 0"/><path d="m150.851562 349.28125h92.710938v-188.347656h-92.710938zm30-158.347656h32.710938v128.347656h-32.710938zm0 0"/><path d="m267.652344 349.28125h92.710937v-188.347656h-92.710937zm30-158.347656h32.710937v128.347656h-32.710937zm0 0"/></g></svg>