<svg height="512pt" viewBox="0 0 512 512" width="512pt" xmlns="http://www.w3.org/2000/svg" xmlns:xlink="http://www.w3.org/1999/xlink"><linearGradient id="a" gradientTransform="matrix(1 0 0 -1 0 -13734)" gradientUnits="userSpaceOnUse" x1="0" x2="512" y1="-13990" y2="-13990"><stop offset="0" stop-color="#00f38d"/><stop offset="1" stop-color="#009eff"/></linearGradient><path d="m512 256c0 141.386719-114.613281 256-256 256s-256-114.613281-256-256 114.613281-256 256-256 256 114.613281 256 256zm0 0" fill="url(#a)"/><g fill="#fff"><path d="m430.71875 262.957031c0-94.6875-77.03125-171.71875-171.71875-171.71875-42.820312 0-83.863281 16.160157-115.15625 44.382813v-42.664063h-30v94.6875h94.6875v-30h-44.3125c25.796875-23.152343 59.5625-36.40625 94.78125-36.40625 78.144531 0 141.71875 63.574219 141.71875 141.71875h1.71875c0 4.402344-.199219 8.84375-.597656 13.195313l26.453125 2.40625c.46875-5.148438.707031-10.398438.710937-15.601563h-11.316406zm0 0"/><path d="m147.253906 352.894531-20.683594 16.667969c6.007813 7.453125 12.695313 14.449219 19.871094 20.792969l17.59375-19.898438c-6.058594-5.359375-11.707031-11.269531-16.78125-17.5625zm0 0"/><path d="m123.675781 310.644531-25.050781 8.828125c3.183594 9.03125 7.167969 17.859375 11.847656 26.242188l23.191406-12.949219c-3.945312-7.066406-7.304687-14.507813-9.988281-22.121094zm0 0"/><path d="m115.5625 262.957031h-26.5625c0 9.609375.808594 19.246094 2.40625 28.648438l26.1875-4.445313c-1.347656-7.9375-2.03125-16.082031-2.03125-24.203125zm0 0"/><path d="m169.515625 407.523438c8.148437 5.054687 16.777344 9.441406 25.644531 13.035156l9.980469-24.617188c-7.476563-3.03125-14.75-6.726562-21.625-10.992187zm0 0"/><path d="m389.371094 322.863281 24.128906 11.109375c4.007812-8.710937 7.292969-17.820312 9.765625-27.078125l-25.664063-6.851562c-2.082031 7.800781-4.851562 15.480469-8.230468 22.820312zm0 0"/><path d="m222.664062 429.0625c9.332032 2.03125 18.929688 3.28125 28.523438 3.714844l1.199219-26.535156c-8.101563-.363282-16.199219-1.421876-24.070313-3.136719zm0 0"/><path d="m362.015625 362.765625 19.074219 18.484375c6.667968-6.878906 12.792968-14.371094 18.207031-22.261719l-21.90625-15.023437c-4.570313 6.664062-9.742187 12.988281-15.375 18.800781zm0 0"/><path d="m322.976562 391.375 11.867188 23.765625c8.5625-4.277344 16.828125-9.320313 24.5625-14.992187l-15.703125-21.421876c-6.527344 4.785157-13.503906 9.042969-20.726563 12.648438zm0 0"/><path d="m276.675781 405.316406 3.234375 26.363282c9.523438-1.167969 19-3.160157 28.164063-5.917969l-7.65625-25.433594c-7.726563 2.324219-15.714844 4.003906-23.742188 4.988281zm0 0"/></g></svg>